<?xml version="1.0" encoding="utf-8"?>
<!-- Generator: Adobe Illustrator 16.0.0, SVG Export Plug-In . SVG Version: 6.00 Build 0)  -->
<!DOCTYPE svg PUBLIC "-//W3C//DTD SVG 1.1//EN" "http://www.w3.org/Graphics/SVG/1.1/DTD/svg11.dtd">
<svg version="1.1" id="Layer_1" xmlns="http://www.w3.org/2000/svg" xmlns:xlink="http://www.w3.org/1999/xlink" x="0px" y="0px"
	 width="275.688px" height="187.734px" viewBox="0 0 275.688 187.734" enable-background="new 0 0 275.688 187.734"
	 xml:space="preserve">
<g>
	<path fill="#D43D44" d="M0,139.972c0,14.05,36.504,25.454,81.536,25.454H194.15c41.619,0,75.948,9.743,80.916,22.308h0.621V47.761
		c0-14.046-36.504-25.453-81.537-25.453H81.536C39.917,22.308,5.588,12.567,0.62,0H0V139.972z"/>
	<g>
		<g>
			<path fill="#FFFFFF" d="M57.064,111.515l21.814,5.416c3.795-1.482,6.077-3.371,6.077-5.416v-8.711
				c0-4.803-12.487-8.703-27.892-8.703c-15.397,0-27.879,3.9-27.879,8.703v8.711c0,4.803,12.481,8.701,27.879,8.701V111.515z"/>
			<path fill="#FFFFFF" d="M78.879,125.637l-21.814-5.421v8.704l21.814,5.419c3.795-1.488,6.077-3.37,6.077-5.419
				c0-1.85,0-6.858,0-8.704C84.956,122.267,82.674,124.149,78.879,125.637z"/>
			<path fill="#FFFFFF" d="M29.186,120.216c0,1.846,0,6.854,0,8.704c0,4.806,12.481,8.701,27.879,8.701v-8.701
				C41.667,128.92,29.186,125.019,29.186,120.216z"/>
			<path fill="#FFFFFF" d="M108.887,128.125c-6.809,0-11.866-5.258-11.866-11.899v-0.063c0-6.578,4.958-11.967,12.065-11.967
				c4.359,0,6.975,1.456,9.121,3.569l-3.238,3.733c-1.786-1.62-3.604-2.612-5.918-2.612c-3.9,0-6.707,3.24-6.707,7.206v0.07
				c0,3.964,2.74,7.268,6.707,7.268c2.646,0,4.263-1.058,6.079-2.708l3.239,3.271C115.994,126.539,113.35,128.125,108.887,128.125z"
				/>
			<path fill="#FFFFFF" d="M132.283,127.727v-1.918c-1.219,1.357-2.906,2.251-5.354,2.251c-3.336,0-6.079-1.918-6.079-5.422v-0.068
				c0-3.867,2.941-5.648,7.139-5.648c1.786,0,3.076,0.295,4.331,0.725v-0.3c0-2.077-1.288-3.239-3.801-3.239
				c-1.917,0-3.271,0.367-4.893,0.962l-1.258-3.833c1.951-0.863,3.869-1.424,6.878-1.424c5.487,0,7.9,2.842,7.9,7.639v10.276
				H132.283z M132.384,120.588c-0.858-0.398-1.982-0.661-3.205-0.661c-2.149,0-3.471,0.857-3.471,2.444v0.066
				c0,1.354,1.125,2.146,2.745,2.146c2.345,0,3.931-1.283,3.931-3.105V120.588z"/>
			<path fill="#FFFFFF" d="M152.875,127.727l-4.628-7.237l-1.751,1.85v5.388h-5.022v-24.132h5.022v12.865l5.887-6.448h6.013
				l-6.742,6.97l6.972,10.745H152.875z"/>
			<path fill="#FFFFFF" d="M176.666,120.625h-12.328c0.495,2.278,2.082,3.467,4.332,3.467c1.686,0,2.908-0.532,4.295-1.818
				l2.88,2.548c-1.657,2.05-4.037,3.304-7.241,3.304c-5.323,0-9.26-3.734-9.26-9.154v-0.068c0-5.058,3.604-9.223,8.761-9.223
				c5.916,0,8.627,4.594,8.627,9.619v0.064C176.731,119.862,176.7,120.16,176.666,120.625z M168.104,113.712
				c-2.08,0-3.438,1.488-3.835,3.768h7.57C171.541,115.231,170.219,113.712,168.104,113.712z"/>
			<path fill="#FFFFFF" d="M189.952,120.785h-3.867v6.942h-5.087v-23.14h9.452c5.517,0,8.855,3.274,8.855,8.004v0.062
				C199.306,118.011,195.141,120.785,189.952,120.785z M194.151,112.687c0-2.28-1.588-3.502-4.132-3.502h-3.935v7.076h4.033
				c2.546,0,4.033-1.525,4.033-3.506V112.687z"/>
			<path fill="#FFFFFF" d="M217.549,127.727v-9.292h-9.389v9.292h-5.086v-23.14h5.086v9.156h9.389v-9.156h5.089v23.14H217.549z"/>
			<path fill="#FFFFFF" d="M237.148,120.785h-3.867v6.942h-5.089v-23.14h9.452c5.517,0,8.857,3.274,8.857,8.004v0.062
				C246.502,118.011,242.337,120.785,237.148,120.785z M241.346,112.687c0-2.28-1.589-3.502-4.132-3.502h-3.933v7.076h4.03
				c2.547,0,4.034-1.525,4.034-3.506V112.687z"/>
		</g>
		<g>
			<path fill="#FFFFFF" d="M182.068,77.909h-4.476l-5.278-15.296l-5.277,15.296h-4.474l-7.983-23.546h5.511l4.844,15.831
				l5.243-15.898h4.407l5.245,15.898l4.843-15.831h5.378L182.068,77.909z"/>
			<path fill="#FFFFFF" d="M194.095,77.742V54.363h5.144v23.378H194.095z"/>
			<path fill="#FFFFFF" d="M215.672,59.104v18.637h-5.143V59.104h-7.114v-4.741h19.371v4.741H215.672z"/>
			<path fill="#FFFFFF" d="M241.357,77.742v-9.385h-9.484v9.385h-5.145V54.363h5.145v9.252h9.484v-9.252h5.145v23.378H241.357z"/>
		</g>
		<g>
			<path fill="#FFFFFF" d="M40.306,77.742h-11.12V54.362h10.854c4.776,0,7.715,2.371,7.715,6.044v0.067
				c0,2.639-1.401,4.107-3.071,5.043c2.705,1.036,4.375,2.605,4.375,5.745v0.067C49.058,75.604,45.584,77.742,40.306,77.742z
				 M42.645,61.276c0-1.537-1.202-2.406-3.372-2.406h-5.077v4.943h4.742c2.271,0,3.707-0.734,3.707-2.472V61.276z M43.948,70.628
				c0-1.571-1.17-2.539-3.809-2.539h-5.944v5.143h6.11c2.271,0,3.643-0.802,3.643-2.538V70.628z"/>
			<path fill="#FFFFFF" d="M70.155,77.742l-2.137-5.244h-9.887l-2.137,5.244h-5.244l10.02-23.547h4.742l10.021,23.547H70.155z
				 M63.075,60.374l-3.106,7.581h6.213L63.075,60.374z"/>
			<path fill="#FFFFFF" d="M93.69,77.742l-7.246-9.954l-2.705,2.806v7.148h-5.144V54.362h5.144v10.219l9.485-10.219h6.212
				l-9.52,9.919l9.954,13.46H93.69z"/>
			<path fill="#FFFFFF" d="M102.977,77.742V54.362h17.635v4.576h-12.525v4.742h11.022v4.576h-11.022v4.908h12.691v4.577H102.977z"/>
			<path fill="#FFFFFF" d="M134.472,77.742h-9.118V54.362h9.118c7.349,0,12.424,5.043,12.424,11.623v0.067
				C146.896,72.631,141.82,77.742,134.472,77.742z M141.519,66.052c0-4.143-2.839-7.048-7.047-7.048h-3.974v14.094h3.974
				c4.208,0,7.047-2.839,7.047-6.98V66.052z"/>
		</g>
	</g>
</g>
</svg>
